<mxfile host="app.diagrams.net" modified="2024-04-02T17:26:31.379Z" agent="Mozilla/5.0 (Windows NT 10.0; Win64; x64) AppleWebKit/537.36 (KHTML, like Gecko) Chrome/123.0.0.0 Safari/537.36" etag="cVjECFb11V4L2KCkbqyx" version="24.2.1" type="device">
  <diagram name="Page-1" id="3zY0aXcicX6E0qDQPKVF">
    <mxGraphModel dx="232" dy="564" grid="1" gridSize="10" guides="1" tooltips="1" connect="1" arrows="1" fold="1" page="1" pageScale="1" pageWidth="850" pageHeight="1100" math="0" shadow="0">
      <root>
        <mxCell id="0" />
        <mxCell id="1" parent="0" />
        <mxCell id="TT764bDXiaHNo_-c3ue7-1" value="name: CharField&lt;div&gt;email: EmailField&lt;/div&gt;&lt;div&gt;genre: CharField&lt;/div&gt;&lt;div&gt;instrument: CharField&lt;/div&gt;&lt;div&gt;profile: OneToOneField(Profile)&lt;/div&gt;&lt;div&gt;&lt;br&gt;&lt;/div&gt;" style="whiteSpace=wrap;html=1;aspect=fixed;align=left;" vertex="1" parent="1">
          <mxGeometry x="340" y="110" width="130" height="130" as="geometry" />
        </mxCell>
        <mxCell id="TT764bDXiaHNo_-c3ue7-2" value="" style="rounded=0;whiteSpace=wrap;html=1;" vertex="1" parent="1">
          <mxGeometry x="340" y="70" width="130" height="40" as="geometry" />
        </mxCell>
        <mxCell id="TT764bDXiaHNo_-c3ue7-3" value="Artist" style="text;html=1;align=center;verticalAlign=middle;whiteSpace=wrap;rounded=0;" vertex="1" parent="1">
          <mxGeometry x="375" y="80" width="60" height="20" as="geometry" />
        </mxCell>
        <mxCell id="TT764bDXiaHNo_-c3ue7-4" value="&lt;div style=&quot;&quot;&gt;&lt;span style=&quot;background-color: initial;&quot;&gt;+ __str__(self)&lt;/span&gt;&lt;/div&gt;&lt;div style=&quot;&quot;&gt;+ get_absolute_url(self)&lt;/div&gt;" style="rounded=0;whiteSpace=wrap;html=1;align=left;" vertex="1" parent="1">
          <mxGeometry x="340" y="240" width="130" height="50" as="geometry" />
        </mxCell>
      </root>
    </mxGraphModel>
  </diagram>
</mxfile>
